<?xml version="1.0" encoding="UTF-8"?><svg id="Layer_1" xmlns="http://www.w3.org/2000/svg" width="153.3521mm" height="70.9316mm" viewBox="0 0 434.6989 201.0659"><defs><style>.cls-1{fill:#fff;}.cls-2{fill:#2b7645;}.cls-3{fill:#40ad66;}</style></defs><polygon class="cls-3" points="434.6989 137.4956 217.3494 201.0659 0 137.4956 0 0 434.6989 0 434.6989 137.4956"/><rect class="cls-1" x="58.3251" y="47.5498" width="12.8544" height="42.4159"/><rect class="cls-1" x="38.5663" y="56.9402" width="12.8544" height="33.0255"/><rect class="cls-1" x="18.8075" y="65.3523" width="12.8544" height="24.6134"/><path class="cls-2" d="M163.1211,103.6637c8.4381-9.5447,17.1454,.6096,28.3574,8.7147,11.4813,8.2997,21.1643,17.2911,23.5266,16.1561,5.3546-2.5727,75.4914-91.6445,82.3582-99.0999,9.4509-10.261,24.0324,2.1602,18.0918,10.8011-7.6489,11.1257-79.1179,110.171-84.2484,115.8416-5.1305,5.6706-9.7108,12.6913-13.8573,12.6913-6.2282,0-10.678-5.1647-15.8765-10.7679-8.9217-9.6163-25.4027-26.8904-31.2922-32.9765-5.0456-5.214-13.7479-13.795-7.0596-21.3605Z"/><g><path class="cls-1" d="M96.7044,89.9658c-.7925,0-1.2832-.3765-1.4712-1.1318l-10.1289-40.1748c-.189-.7539,.0752-1.1313,.7925-1.1313h8.0347c.7544,0,1.207,.3774,1.3584,1.1313l4.0732,20.0308c.0371,.1514,.1504,.2266,.3398,.2266s.3008-.0752,.3398-.2266l4.0742-20.0308c.1504-.7539,.6035-1.1313,1.3574-1.1313h8.0352c.7168,0,.9805,.3774,.793,1.1313l-10.1289,40.1748c-.1895,.7554-.6797,1.1318-1.4707,1.1318h-5.9985Z"/><path class="cls-1" d="M132.1825,90.5317c-1.5469,0-2.999-.2461-4.3564-.7358-1.3584-.4897-2.6416-1.2817-3.8477-2.3765-1.208-1.0938-2.1699-2.6592-2.8867-4.6963s-1.0742-4.4507-1.0742-7.2427v-2.7163c0-2.791,.3574-5.2056,1.0742-7.2427s1.6787-3.6021,2.8867-4.6968c1.2061-1.0933,2.4893-1.8857,3.8477-2.3765,1.3574-.4897,2.8096-.7354,4.3564-.7354,1.4336,0,2.7812,.2075,4.0459,.6221,1.2637,.416,2.4893,1.085,3.6777,2.0088,1.1885,.9248,2.1406,2.3018,2.8574,4.1309,.7168,1.8301,1.0752,4.0088,1.0752,6.5356,0,1.2446-.0762,2.4526-.2256,3.6211-.0762,.4526-.1895,.7642-.3398,.9336-.1514,.1699-.4346,.2549-.8486,.2549h-12.4492c-.377,0-.5654,.189-.5654,.5659v2.3765c0,1.0942,.292,1.915,.877,2.4614,.585,.5474,1.2354,.8203,1.9521,.8203,1.2451,0,2.0742-.6597,2.4902-1.9805,.1494-.4897,.4707-.7354,.9619-.7354h6.9033c.5654,0,.8105,.3394,.7354,1.0186-.2266,1.9995-.7266,3.7061-1.5,5.1206s-1.7168,2.4712-2.8291,3.1689c-1.1133,.6982-2.2168,1.188-3.3096,1.4712-1.0947,.2827-2.2637,.4243-3.5088,.4243Zm-2.207-20.936h5.0928c.377,0,.5664-.1885,.5664-.5659v-.1133c0-1.0938-.3311-1.9141-.9902-2.4614-.6611-.5464-1.3682-.8203-2.1221-.8203-.7549,0-1.4629,.2739-2.1221,.8203-.6602,.5474-.9902,1.3677-.9902,2.4614v.1133c0,.3774,.1885,.5659,.5654,.5659Z"/><path class="cls-1" d="M151.8172,89.9658c-.792,0-1.1885-.396-1.1885-1.1885v-29.3105c0-.792,.3965-1.188,1.1885-1.188h5.4883c.6416,0,1.0752,.4341,1.3018,1.3013l.2832,1.1318c.1494,.5283,.3955,.585,.7354,.1694,1.9609-2.1118,4.5264-3.1685,7.6953-3.1685,.792,0,1.1885,.396,1.1885,1.188v6.7339c0,.792-.3965,1.188-1.1885,1.188-2.1504,0-3.8672,.5659-5.1494,1.6978-1.2822,1.1313-1.9238,2.9053-1.9238,5.3188v14.938c0,.7925-.3955,1.1885-1.1885,1.1885h-7.2422Z"/><path class="cls-1" d="M181.4676,52.1675c-1.0566,1.0566-2.3398,1.5845-3.8486,1.5845s-2.8008-.5278-3.876-1.5845c-1.0752-1.0557-1.6123-2.3384-1.6123-3.8477,0-1.5083,.5371-2.791,1.6123-3.8477,1.0752-1.0557,2.3672-1.5845,3.876-1.5845s2.792,.5288,3.8486,1.5845c1.0557,1.0566,1.584,2.3394,1.584,3.8477,0,1.5093-.5283,2.792-1.584,3.8477Zm-7.4697,37.7983c-.792,0-1.1885-.396-1.1885-1.1885v-29.3105c0-.792,.3965-1.188,1.1885-1.188h7.2432c.792,0,1.1885,.396,1.1885,1.188v29.3105c0,.7925-.3965,1.1885-1.1885,1.1885h-7.2432Z"/><path class="cls-1" d="M193.2928,89.9658c-.792,0-1.1885-.396-1.1885-1.1885v-21.8413c0-.4146-.0762-.6978-.2266-.8486-.1504-.1504-.4336-.2266-.8486-.2266h-1.1309c-.793,0-1.1885-.396-1.1885-1.188v-5.2061c0-.792,.3955-1.188,1.1885-1.188h1.2441c.415,0,.6982-.0566,.8486-.1699s.2266-.3579,.2266-.7358v-.1694c0-3.3569,1.0557-5.8091,3.1689-7.356,2.1123-1.5464,5.3564-2.3198,9.7324-2.3198,.792,0,1.1885,.396,1.1885,1.188v5.6021c0,.792-.3965,1.188-1.1885,1.188-1.1318,0-2.0283,.1611-2.6875,.481-.6611,.3213-.9902,.7456-.9902,1.2734v.1128c0,.604,.3008,.9058,.9053,.9058h2.7725c.792,0,1.1885,.396,1.1885,1.188v5.2061c0,.792-.3965,1.188-1.1885,1.188h-2.3203c-.415,0-.6982,.0762-.8486,.2266-.1514,.1509-.2266,.4341-.2266,.8486v21.8413c0,.7925-.3955,1.1885-1.1875,1.1885h-7.2432Z"/><path class="cls-1" d="M222.0946,52.1675c-1.0566,1.0566-2.3398,1.5845-3.8486,1.5845s-2.8008-.5278-3.876-1.5845c-1.0752-1.0557-1.6123-2.3384-1.6123-3.8477,0-1.5083,.5371-2.791,1.6123-3.8477,1.0752-1.0557,2.3672-1.5845,3.876-1.5845s2.792,.5288,3.8486,1.5845c1.0557,1.0566,1.584,2.3394,1.584,3.8477,0,1.5093-.5283,2.792-1.584,3.8477Zm-7.4697,37.7983c-.792,0-1.1885-.396-1.1885-1.1885v-29.3105c0-.792,.3965-1.188,1.1885-1.188h7.2432c.792,0,1.1885,.396,1.1885,1.188v29.3105c0,.7925-.3965,1.1885-1.1885,1.1885h-7.2432Z"/><path class="cls-1" d="M241.5018,90.5317c-1.5469,0-2.999-.2461-4.3564-.7358-1.3584-.4897-2.6416-1.2817-3.8477-2.3765-1.208-1.0938-2.1699-2.6592-2.8867-4.6963s-1.0742-4.4507-1.0742-7.2427v-2.7163c0-2.791,.3574-5.2056,1.0742-7.2427s1.6787-3.6021,2.8867-4.6968c1.2061-1.0933,2.4893-1.8857,3.8477-2.3765,1.3574-.4897,2.8096-.7354,4.3564-.7354,1.4336,0,2.7812,.2075,4.0459,.6221,1.2637,.416,2.4893,1.085,3.6777,2.0088,1.1885,.9248,2.1406,2.3018,2.8574,4.1309,.7168,1.8301,1.0752,4.0088,1.0752,6.5356,0,1.2446-.0762,2.4526-.2256,3.6211-.0762,.4526-.1895,.7642-.3398,.9336-.1514,.1699-.4346,.2549-.8486,.2549h-12.4492c-.377,0-.5654,.189-.5654,.5659v2.3765c0,1.0942,.292,1.915,.877,2.4614,.585,.5474,1.2354,.8203,1.9521,.8203,1.2451,0,2.0742-.6597,2.4902-1.9805,.1494-.4897,.4707-.7354,.9619-.7354h6.9033c.5654,0,.8105,.3394,.7354,1.0186-.2266,1.9995-.7266,3.7061-1.5,5.1206s-1.7168,2.4712-2.8291,3.1689c-1.1133,.6982-2.2168,1.188-3.3096,1.4712-1.0947,.2827-2.2637,.4243-3.5088,.4243Zm-2.207-20.936h5.0928c.377,0,.5664-.1885,.5664-.5659v-.1133c0-1.0938-.3311-1.9141-.9902-2.4614-.6611-.5464-1.3682-.8203-2.1221-.8203-.7549,0-1.4629,.2739-2.1221,.8203-.6602,.5474-.9902,1.3677-.9902,2.4614v.1133c0,.3774,.1885,.5659,.5654,.5659Z"/><path class="cls-1" d="M270.5291,90.2485c-2.8291,.7163-5.3467,.1504-7.5537-1.6973s-3.3105-4.4321-3.3105-7.752v-13.354c0-3.3188,1.1035-5.9033,3.3105-7.752,2.207-1.8481,4.7246-2.4136,7.5537-1.6978,.9805,.2266,1.9043,.6226,2.7725,1.1885,.415,.2642,.7549,.3394,1.0186,.2261,.2637-.1128,.3965-.4146,.3965-.9053v-9.7891c0-.792,.3965-1.188,1.1885-1.188h7.2422c.793,0,1.1885,.396,1.1885,1.188v40.0615c0,.7925-.3955,1.1885-1.1885,1.1885h-5.4883c-.6787,0-1.1133-.4331-1.3018-1.3013l-.0566-.2832c-.0762-.4526-.2637-.7256-.5654-.8203-.3027-.0938-.6221,.0283-.9619,.3677-1.2451,1.1699-2.6592,1.9434-4.2441,2.3198Zm-.4238-8.9966c.5459,.5288,1.1777,.792,1.8955,.792,.7158,0,1.3477-.2632,1.8955-.792,.5459-.5278,.8203-1.3579,.8203-2.4897v-9.2798c0-1.1318-.2744-1.9609-.8203-2.4897-.5479-.5278-1.1797-.7925-1.8955-.7925-.7178,0-1.3496,.2646-1.8955,.7925-.5479,.5288-.8213,1.3579-.8213,2.4897v9.2798c0,1.1318,.2734,1.9619,.8213,2.4897Z"/><path class="cls-1" d="M308.5526,89.9658c-.792,0-1.1875-.396-1.1875-1.1885V48.7158c0-.792,.3955-1.188,1.1875-1.188h12.166c4.9414,0,8.5908,1.4619,10.9492,4.3853,2.3564,2.9238,3.5361,6.9312,3.5361,12.0239v9.6191c0,5.0928-1.1797,9.1016-3.5361,12.0244-2.3584,2.9238-6.0078,4.3853-10.9492,4.3853h-12.166Zm10.0723-9.0537h1.5283c1.999,0,3.3096-.6123,3.9326-1.8389,.6221-1.2251,.9336-2.9512,.9336-5.1772v-10.2983c0-1.0557-.0479-1.9326-.1416-2.6313-.0947-.6978-.293-1.4146-.5947-2.1499-.3018-.7358-.8018-1.292-1.499-1.6694-.6982-.3765-1.5752-.5659-2.6309-.5659h-1.5283c-.415,0-.6982,.0762-.8486,.2266-.1514,.1509-.2266,.4341-.2266,.8486v22.1812c0,.4155,.0752,.6982,.2266,.8486,.1504,.1514,.4336,.2261,.8486,.2261Z"/><path class="cls-1" d="M351.8963,90.3052c-2.9053,.7163-5.498,.1699-7.7803-1.6406-2.2832-1.811-3.4229-4.4321-3.4229-7.8652,0-6.3745,4.4697-9.8643,13.4102-10.4683,.7539-.0752,1.1318-.4712,1.1318-1.1885v-.9619c0-.792-.2178-1.4146-.6514-1.8672s-1.0098-.6787-1.7256-.6787c-1.4707,0-2.3008,.8486-2.4893,2.5459-.0381,.4907-.3594,.7358-.9619,.7358h-6.4512c-.4902,0-.7354-.3394-.7354-1.0186,0-1.8477,.3203-3.4517,.9619-4.8096,.6406-1.3579,1.5088-2.4136,2.6025-3.1689,1.0938-.7539,2.2637-1.3101,3.5088-1.6689,1.2451-.3584,2.5645-.5376,3.9609-.5376,3.3184,0,6.0732,.9814,8.2607,2.9424,2.1875,1.9619,3.2822,4.9985,3.2822,9.1099l.0566,12.1655c0,2.7163,.1885,5.0176,.5654,6.9033,.1504,.7554-.2256,1.1318-1.1309,1.1318h-6.791c-.5283,0-.8682-.1885-1.0186-.5659-.1885-.4146-.3486-.6597-.4805-.7354-.1328-.0752-.3496-.0186-.6504,.1694-1.0566,.6792-2.207,1.1689-3.4521,1.4712Zm-.8486-8.3462c.4531,.4722,1.0186,.689,1.6973,.6509,.6797-.0371,1.2637-.311,1.7539-.8203s.7363-1.3301,.7363-2.4614v-1.9805c0-.9424-.4346-1.3203-1.3018-1.1318-2.5654,.4907-3.7725,1.7539-3.6211,3.791,.0371,.8306,.2822,1.481,.7354,1.9521Z"/><path class="cls-1" d="M385.8455,89.9658c-4.7158,0-8.0625-.8389-10.043-2.5181-1.9805-1.6782-2.9707-4.6299-2.9707-8.8555v-11.6562c0-.4146-.0762-.6978-.2266-.8486-.1514-.1504-.4346-.2266-.8486-.2266h-1.1318c-.792,0-1.1885-.396-1.1885-1.188v-5.2061c0-.792,.3965-1.188,1.1885-1.188h1.6973c.415,0,.6982-.0752,.8486-.2266,.1504-.1504,.2266-.4331,.2266-.8486v-4.5269c0-.792,.3965-1.1885,1.1885-1.1885h6.3936c.793,0,1.1885,.3965,1.1885,1.1885v4.5269c0,.4155,.0752,.6982,.2266,.8486,.1504,.1514,.4336,.2266,.8486,.2266h2.6025c.793,0,1.1885,.396,1.1885,1.188v5.2061c0,.792-.3955,1.188-1.1885,1.188h-2.3193c-.416,0-.6982,.0762-.8486,.2266-.1514,.1509-.2266,.4341-.2266,.8486v11.6562c0,2.3013,1.1318,3.4517,3.3945,3.4517,.793,0,1.1885,.396,1.1885,1.1885v5.5449c0,.7925-.3955,1.1885-1.1885,1.1885Z"/><path class="cls-1" d="M403.0477,90.3052c-2.9053,.7163-5.498,.1699-7.7803-1.6406-2.2832-1.811-3.4229-4.4321-3.4229-7.8652,0-6.3745,4.4697-9.8643,13.4102-10.4683,.7539-.0752,1.1318-.4712,1.1318-1.1885v-.9619c0-.792-.2178-1.4146-.6514-1.8672s-1.0098-.6787-1.7256-.6787c-1.4707,0-2.3008,.8486-2.4893,2.5459-.0381,.4907-.3594,.7358-.9619,.7358h-6.4512c-.4902,0-.7354-.3394-.7354-1.0186,0-1.8477,.3203-3.4517,.9619-4.8096,.6406-1.3579,1.5088-2.4136,2.6025-3.1689,1.0938-.7539,2.2637-1.3101,3.5088-1.6689,1.2451-.3584,2.5645-.5376,3.9609-.5376,3.3184,0,6.0732,.9814,8.2607,2.9424,2.1875,1.9619,3.2822,4.9985,3.2822,9.1099l.0566,12.1655c0,2.7163,.1885,5.0176,.5654,6.9033,.1504,.7554-.2256,1.1318-1.1309,1.1318h-6.791c-.5283,0-.8682-.1885-1.0186-.5659-.1885-.4146-.3486-.6597-.4805-.7354-.1328-.0752-.3496-.0186-.6504,.1694-1.0566,.6792-2.207,1.1689-3.4521,1.4712Zm-.8486-8.3462c.4531,.4722,1.0186,.689,1.6973,.6509,.6797-.0371,1.2637-.311,1.7539-.8203s.7363-1.3301,.7363-2.4614v-1.9805c0-.9424-.4346-1.3203-1.3018-1.1318-2.5654,.4907-3.7725,1.7539-3.6211,3.791,.0371,.8306,.2822,1.481,.7354,1.9521Z"/></g></svg>