<svg width="24" height="24" viewBox="0 0 24 24" fill="none" xmlns="http://www.w3.org/2000/svg">
<rect width="24" height="24" rx="4" fill="#CB55CD" fill-opacity="0.15"/>
<path d="M6.66536 12.7434L7.71513 16.9425C7.74465 17.0606 7.75941 17.1196 7.77688 17.1712C7.94748 17.6748 8.40104 18.029 8.93104 18.0724C8.9853 18.0768 9.04616 18.0768 9.16789 18.0768C9.32032 18.0768 9.39654 18.0768 9.46075 18.0706C10.0954 18.009 10.5976 17.5068 10.6591 16.8722C10.6654 16.808 10.6654 16.7317 10.6654 16.5793V7.07676M16.332 12.4101C17.6207 12.4101 18.6654 11.3654 18.6654 10.0768C18.6654 8.7881 17.6207 7.74343 16.332 7.74343M10.832 7.07676H8.33203C6.67518 7.07676 5.33203 8.41991 5.33203 10.0768C5.33203 11.7336 6.67518 13.0768 8.33203 13.0768H10.832C12.0096 13.0768 13.4502 13.708 14.5616 14.3139C15.2099 14.6673 15.5341 14.844 15.7464 14.818C15.9433 14.7939 16.0922 14.7055 16.2076 14.5442C16.332 14.3702 16.332 14.0221 16.332 13.3259V6.82762C16.332 6.13143 16.332 5.78333 16.2076 5.60936C16.0922 5.44803 15.9433 5.35963 15.7464 5.33552C15.5341 5.30951 15.2099 5.48623 14.5616 5.83967C13.4502 6.4455 12.0096 7.07676 10.832 7.07676Z" stroke="#CB55CD" stroke-width="1.5" stroke-linecap="round" stroke-linejoin="round"/>
</svg>
