<svg width="24" height="24" viewBox="0 0 24 24" fill="none" xmlns="http://www.w3.org/2000/svg">
<rect width="24" height="24" rx="4" fill="#4ECB4E" fill-opacity="0.15"/>
<path d="M10.332 9.97666C10.332 9.65848 10.332 9.49938 10.3985 9.41056C10.4565 9.33316 10.5452 9.28474 10.6416 9.27784C10.7523 9.26994 10.8861 9.35597 11.1538 9.52804L14.3008 11.5512C14.5331 11.7004 14.6492 11.7751 14.6893 11.87C14.7244 11.953 14.7244 12.0466 14.6893 12.1295C14.6492 12.2244 14.5331 12.2991 14.3008 12.4484L11.1538 14.4715C10.8861 14.6436 10.7523 14.7296 10.6416 14.7217C10.5452 14.7148 10.4565 14.6664 10.3985 14.589C10.332 14.5002 10.332 14.3411 10.332 14.0229V9.97666Z" stroke="#4ECB4E" stroke-width="1.5" stroke-linecap="round" stroke-linejoin="round"/>
<path d="M5 9.2C5 8.07989 5 7.51984 5.25432 7.09202C5.47802 6.71569 5.83498 6.40973 6.27402 6.21799C6.77315 6 7.42654 6 8.73333 6H15.2667C16.5735 6 17.2268 6 17.726 6.21799C18.1651 6.40973 18.522 6.71569 18.7457 7.09202C19 7.51984 19 8.07989 19 9.2V14.8C19 15.9201 19 16.4801 18.7457 16.908C18.522 17.2843 18.1651 17.5903 17.726 17.782C17.2268 18 16.5735 18 15.2667 18H8.73333C7.42654 18 6.77315 18 6.27402 17.782C5.83498 17.5903 5.47802 17.2843 5.25432 16.908C5 16.4801 5 15.9201 5 14.8V9.2Z" stroke="#4ECB4E" stroke-width="1.5" stroke-linecap="round" stroke-linejoin="round"/>
</svg>
