<svg width="24" height="24" viewBox="0 0 24 24" fill="none" xmlns="http://www.w3.org/2000/svg">
<rect width="24" height="24" rx="4" fill="#4EA1CB" fill-opacity="0.15"/>
<g clip-path="url(#clip0_1008_395)">
<path d="M8.0616 11.4855C8.02017 11.2185 7.99867 10.9449 7.99867 10.6663C7.99867 7.72082 10.4022 5.33301 13.3671 5.33301C16.332 5.33301 18.7355 7.72082 18.7355 10.6663C18.7355 11.3317 18.6129 11.9687 18.3888 12.556C18.3423 12.678 18.319 12.739 18.3084 12.7866C18.298 12.8338 18.2939 12.867 18.2928 12.9153C18.2916 12.9641 18.2982 13.0178 18.3115 13.1252L18.5798 15.3053C18.6089 15.5413 18.6234 15.6593 18.5842 15.7451C18.5498 15.8203 18.4887 15.88 18.4128 15.9127C18.3261 15.9499 18.2084 15.9327 17.9732 15.8982L15.8497 15.5869C15.7388 15.5707 15.6834 15.5625 15.6328 15.5629C15.5829 15.5631 15.5484 15.5668 15.4994 15.5771C15.45 15.5875 15.3869 15.6111 15.2607 15.6584C14.6718 15.879 14.0336 15.9997 13.3671 15.9997C13.0883 15.9997 12.8145 15.9785 12.5472 15.9379M9.08642 18.6663C11.063 18.6663 12.6654 17.0247 12.6654 14.9997C12.6654 12.9746 11.063 11.333 9.08642 11.333C7.10982 11.333 5.50747 12.9746 5.50747 14.9997C5.50747 15.4067 5.57222 15.7983 5.69173 16.1641C5.74225 16.3188 5.76751 16.3961 5.7758 16.4489C5.78446 16.5041 5.78597 16.5351 5.78275 16.5908C5.77966 16.6442 5.7663 16.7045 5.73959 16.8252L5.33203 18.6663L7.32856 18.3937C7.43754 18.3788 7.49203 18.3713 7.53961 18.3717C7.58971 18.372 7.6163 18.3747 7.66544 18.3845C7.7121 18.3938 7.78147 18.4183 7.92021 18.4673C8.28576 18.5963 8.6781 18.6663 9.08642 18.6663Z" stroke="#4EA1CB" stroke-width="1.5" stroke-linecap="round" stroke-linejoin="round"/>
</g>
<defs>
<clipPath id="clip0_1008_395">
<rect width="16" height="16" fill="white" transform="translate(4 4)"/>
</clipPath>
</defs>
</svg>
