<svg width="24" height="24" viewBox="0 0 24 24" fill="none" xmlns="http://www.w3.org/2000/svg">
<rect width="24" height="24" rx="4" fill="#556FCD" fill-opacity="0.15"/>
<path d="M13.3346 5.51269V8.26639C13.3346 8.63975 13.3346 8.82644 13.4073 8.96905C13.4712 9.09449 13.5732 9.19647 13.6986 9.26039C13.8412 9.33305 14.0279 9.33305 14.4013 9.33305H17.155M10.0013 14.6663L11.3346 15.9997L14.3346 12.9997M13.3346 5.33301H9.86797C8.74786 5.33301 8.18781 5.33301 7.75999 5.55099C7.38366 5.74274 7.0777 6.0487 6.88596 6.42503C6.66797 6.85285 6.66797 7.4129 6.66797 8.53301V15.4663C6.66797 16.5865 6.66797 17.1465 6.88596 17.5743C7.0777 17.9507 7.38366 18.2566 7.75999 18.4483C8.18781 18.6663 8.74786 18.6663 9.86797 18.6663H14.1346C15.2548 18.6663 15.8148 18.6663 16.2426 18.4483C16.619 18.2566 16.9249 17.9507 17.1166 17.5743C17.3346 17.1465 17.3346 16.5865 17.3346 15.4663V9.33301L13.3346 5.33301Z" stroke="#556FCD" stroke-width="1.5" stroke-linecap="round" stroke-linejoin="round"/>
</svg>
