<svg width="24" height="24" viewBox="0 0 24 24" fill="none" xmlns="http://www.w3.org/2000/svg">
<rect width="24" height="24" rx="4" fill="#EF671E" fill-opacity="0.15"/>
<g clip-path="url(#clip0_1008_384)">
<path d="M9.9987 6.33301V5.33301M7.37247 7.37345L6.66536 6.66634M7.37247 12.6663L6.66536 13.3735M12.6654 7.37345L13.3725 6.66634M6.33203 9.99967H5.33203M14.575 14.7927L12.9138 17.8777C12.7241 18.2301 12.6292 18.4063 12.515 18.4509C12.416 18.4896 12.3044 18.4787 12.2147 18.4215C12.1113 18.3557 12.0524 18.1644 11.9346 17.7819L9.62882 10.2965C9.53256 9.98401 9.48443 9.82776 9.52316 9.72223C9.55689 9.63031 9.62933 9.55787 9.72125 9.52414C9.82678 9.48541 9.98303 9.53354 10.2955 9.6298L17.7808 11.9355C18.1634 12.0534 18.3546 12.1123 18.4205 12.2157C18.4777 12.3054 18.4886 12.4169 18.4499 12.516C18.4054 12.6302 18.2291 12.7251 17.8767 12.9149L14.7918 14.576C14.7394 14.6042 14.7132 14.6183 14.6903 14.6364C14.6699 14.6525 14.6515 14.6709 14.6354 14.6913C14.6173 14.7141 14.6032 14.7403 14.575 14.7927Z" stroke="#EF671E" stroke-width="1.5" stroke-linecap="round" stroke-linejoin="round"/>
</g>
<defs>
<clipPath id="clip0_1008_384">
<rect width="16" height="16" fill="white" transform="translate(4 4)"/>
</clipPath>
</defs>
</svg>
