<svg width="24" height="24" viewBox="0 0 24 24" fill="none" xmlns="http://www.w3.org/2000/svg">
<rect width="24" height="24" rx="4" fill="#4E4ECB" fill-opacity="0.15"/>
<path d="M18.332 16.0003L13.9034 12.0003M10.0939 12.0003L5.66538 16.0003M5.33203 8.66699L10.7753 12.4773C11.2161 12.7859 11.4365 12.9401 11.6762 12.9999C11.888 13.0527 12.1094 13.0527 12.3212 12.9999C12.5609 12.9401 12.7813 12.7859 13.2221 12.4773L18.6654 8.66699M8.53203 17.3337H15.4654C16.5855 17.3337 17.1455 17.3337 17.5734 17.1157C17.9497 16.9239 18.2556 16.618 18.4474 16.2417C18.6654 15.8138 18.6654 15.2538 18.6654 14.1337V9.86699C18.6654 8.74689 18.6654 8.18683 18.4474 7.75901C18.2556 7.38269 17.9497 7.07673 17.5734 6.88498C17.1455 6.66699 16.5855 6.66699 15.4654 6.66699H8.53203C7.41192 6.66699 6.85187 6.66699 6.42405 6.88498C6.04772 7.07673 5.74176 7.38269 5.55002 7.75901C5.33203 8.18683 5.33203 8.74689 5.33203 9.86699V14.1337C5.33203 15.2538 5.33203 15.8138 5.55002 16.2417C5.74176 16.618 6.04772 16.9239 6.42405 17.1157C6.85187 17.3337 7.41192 17.3337 8.53203 17.3337Z" stroke="#4E4ECB" stroke-width="1.5" stroke-linecap="round" stroke-linejoin="round"/>
</svg>
