<svg width="24" height="24" viewBox="0 0 24 24" fill="none" xmlns="http://www.w3.org/2000/svg">
<rect width="24" height="24" rx="4" fill="#A14ECB" fill-opacity="0.15"/>
<g clip-path="url(#clip0_1008_394)">
<path d="M8.9987 6.99967C8.9987 6.0792 9.74489 5.33301 10.6654 5.33301C11.5858 5.33301 12.332 6.0792 12.332 6.99967V7.99967H12.9987C13.9306 7.99967 14.3965 7.99967 14.7641 8.15191C15.2541 8.3549 15.6435 8.74425 15.8464 9.23431C15.9987 9.60185 15.9987 10.0678 15.9987 10.9997H16.9987C17.9192 10.9997 18.6654 11.7459 18.6654 12.6663C18.6654 13.5868 17.9192 14.333 16.9987 14.333H15.9987V15.4663C15.9987 16.5865 15.9987 17.1465 15.7807 17.5743C15.589 17.9507 15.283 18.2566 14.9067 18.4483C14.4788 18.6663 13.9188 18.6663 12.7987 18.6663H12.332V17.4997C12.332 16.6713 11.6604 15.9997 10.832 15.9997C10.0036 15.9997 9.33203 16.6713 9.33203 17.4997V18.6663H8.53203C7.41192 18.6663 6.85187 18.6663 6.42405 18.4483C6.04772 18.2566 5.74176 17.9507 5.55002 17.5743C5.33203 17.1465 5.33203 16.5865 5.33203 15.4663V14.333H6.33203C7.2525 14.333 7.9987 13.5868 7.9987 12.6663C7.9987 11.7459 7.2525 10.9997 6.33203 10.9997H5.33203C5.33203 10.0678 5.33203 9.60185 5.48427 9.23431C5.68726 8.74425 6.07661 8.3549 6.56666 8.15191C6.9342 7.99967 7.40015 7.99967 8.33203 7.99967H8.9987V6.99967Z" stroke="#A14ECB" stroke-width="1.5" stroke-linecap="round" stroke-linejoin="round"/>
</g>
<defs>
<clipPath id="clip0_1008_394">
<rect width="16" height="16" fill="white" transform="translate(4 4)"/>
</clipPath>
</defs>
</svg>
