<svg width="24" height="24" viewBox="0 0 24 24" fill="none" xmlns="http://www.w3.org/2000/svg">
<rect width="24" height="24" rx="4" fill="#8459A5" fill-opacity="0.15"/>
<g clip-path="url(#clip0_1008_386)">
<path d="M7.9987 7.99967H8.00536M7.9987 15.9997H8.00536M7.46536 10.6663H16.532C17.2788 10.6663 17.6522 10.6663 17.9374 10.521C18.1882 10.3932 18.3922 10.1892 18.52 9.93833C18.6654 9.65311 18.6654 9.27975 18.6654 8.53301V7.46634C18.6654 6.71961 18.6654 6.34623 18.52 6.06102C18.3922 5.81013 18.1882 5.60616 17.9374 5.47833C17.6522 5.33301 17.2788 5.33301 16.532 5.33301H7.46536C6.71862 5.33301 6.34526 5.33301 6.06004 5.47833C5.80916 5.60616 5.60518 5.81013 5.47736 6.06102C5.33203 6.34623 5.33203 6.7196 5.33203 7.46634V8.53301C5.33203 9.27975 5.33203 9.65311 5.47736 9.93833C5.60518 10.1892 5.80916 10.3932 6.06004 10.521C6.34526 10.6663 6.71863 10.6663 7.46536 10.6663ZM7.46536 18.6663H16.532C17.2788 18.6663 17.6522 18.6663 17.9374 18.521C18.1882 18.3932 18.3922 18.1892 18.52 17.9383C18.6654 17.6531 18.6654 17.2797 18.6654 16.533V15.4663C18.6654 14.7196 18.6654 14.3462 18.52 14.061C18.3922 13.8101 18.1882 13.6061 17.9374 13.4783C17.6522 13.333 17.2788 13.333 16.532 13.333H7.46536C6.71862 13.333 6.34526 13.333 6.06004 13.4783C5.80916 13.6061 5.60518 13.8101 5.47736 14.061C5.33203 14.3462 5.33203 14.7196 5.33203 15.4663V16.533C5.33203 17.2797 5.33203 17.6531 5.47736 17.9383C5.60518 18.1892 5.80916 18.3932 6.06004 18.521C6.34526 18.6663 6.71863 18.6663 7.46536 18.6663Z" stroke="#8459A5" stroke-width="1.5" stroke-linecap="round" stroke-linejoin="round"/>
</g>
<defs>
<clipPath id="clip0_1008_386">
<rect width="16" height="16" fill="white" transform="translate(4 4)"/>
</clipPath>
</defs>
</svg>
