<svg width="24" height="24" viewBox="0 0 24 24" fill="none" xmlns="http://www.w3.org/2000/svg">
<rect width="24" height="24" rx="4" fill="#CB4EA1" fill-opacity="0.15"/>
<path d="M9 12H9.00667M12 12H12.0067M15 12H15.0067M9.33333 12C9.33333 12.1841 9.18409 12.3333 9 12.3333C8.81591 12.3333 8.66667 12.1841 8.66667 12C8.66667 11.8159 8.81591 11.6667 9 11.6667C9.18409 11.6667 9.33333 11.8159 9.33333 12ZM12.3333 12C12.3333 12.1841 12.1841 12.3333 12 12.3333C11.8159 12.3333 11.6667 12.1841 11.6667 12C11.6667 11.8159 11.8159 11.6667 12 11.6667C12.1841 11.6667 12.3333 11.8159 12.3333 12ZM15.3333 12C15.3333 12.1841 15.1841 12.3333 15 12.3333C14.8159 12.3333 14.6667 12.1841 14.6667 12C14.6667 11.8159 14.8159 11.6667 15 11.6667C15.1841 11.6667 15.3333 11.8159 15.3333 12ZM18 12C18 15.3137 15.3137 18 12 18C8.68629 18 6 15.3137 6 12C6 8.68629 8.68629 6 12 6C15.3137 6 18 8.68629 18 12Z" stroke="#CB4EA1" stroke-width="1.5" stroke-linecap="round" stroke-linejoin="round"/>
</svg>
