<svg width="24" height="24" viewBox="0 0 24 24" fill="none" xmlns="http://www.w3.org/2000/svg">
<rect width="24" height="24" rx="4" fill="#5EBEDB" fill-opacity="0.15"/>
<path d="M18 18H7.06667C6.6933 18 6.50661 18 6.36401 17.9273C6.23857 17.8634 6.13658 17.7615 6.07266 17.636C6 17.4934 6 17.3067 6 16.9333V6M18 8.66667L14.3771 12.2895C14.2451 12.4215 14.1791 12.4875 14.103 12.5123C14.0361 12.5341 13.9639 12.5341 13.897 12.5123C13.8209 12.4875 13.7549 12.4215 13.6229 12.2895L12.3771 11.0438C12.2451 10.9118 12.1791 10.8458 12.103 10.8211C12.0361 10.7993 11.9639 10.7993 11.897 10.8211C11.8209 10.8458 11.7549 10.9118 11.6229 11.0438L8.66667 14M18 8.66667H15.3333M18 8.66667V11.3333" stroke="#5EBEDB" stroke-width="1.5" stroke-linecap="round" stroke-linejoin="round"/>
</svg>
