<svg width="24" height="24" viewBox="0 0 24 24" fill="none" xmlns="http://www.w3.org/2000/svg">
<rect width="24" height="24" rx="4" fill="#CBA14E" fill-opacity="0.15"/>
<path d="M9.66667 12.3333C9.66667 12.3333 10.5417 13.3333 12 13.3333C13.4583 13.3333 14.3333 12.3333 14.3333 12.3333M13.8333 9H13.84M10.1667 9H10.1733M8.66667 16V17.557C8.66667 17.9123 8.66667 18.0899 8.73949 18.1811C8.80281 18.2604 8.89885 18.3066 9.00036 18.3065C9.11709 18.3063 9.25578 18.1954 9.53317 17.9735L11.1235 16.7012C11.4483 16.4413 11.6108 16.3114 11.7917 16.219C11.9521 16.137 12.1229 16.0771 12.2995 16.0409C12.4985 16 12.7065 16 13.1225 16H14.8C15.9201 16 16.4801 16 16.908 15.782C17.2843 15.5903 17.5903 15.2843 17.782 14.908C18 14.4801 18 13.9201 18 12.8V9.2C18 8.07989 18 7.51984 17.782 7.09202C17.5903 6.71569 17.2843 6.40973 16.908 6.21799C16.4801 6 15.9201 6 14.8 6H9.2C8.07989 6 7.51984 6 7.09202 6.21799C6.71569 6.40973 6.40973 6.71569 6.21799 7.09202C6 7.51984 6 8.07989 6 9.2V13.3333C6 13.9533 6 14.2633 6.06815 14.5177C6.25308 15.2078 6.79218 15.7469 7.48236 15.9319C7.73669 16 8.04669 16 8.66667 16ZM14.1667 9C14.1667 9.18409 14.0174 9.33333 13.8333 9.33333C13.6493 9.33333 13.5 9.18409 13.5 9C13.5 8.81591 13.6493 8.66667 13.8333 8.66667C14.0174 8.66667 14.1667 8.81591 14.1667 9ZM10.5 9C10.5 9.18409 10.3508 9.33333 10.1667 9.33333C9.98257 9.33333 9.83333 9.18409 9.83333 9C9.83333 8.81591 9.98257 8.66667 10.1667 8.66667C10.3508 8.66667 10.5 8.81591 10.5 9Z" stroke="#CBA14E" stroke-width="1.5" stroke-linecap="round" stroke-linejoin="round"/>
</svg>
