<svg width="24" height="24" viewBox="0 0 24 24" fill="none" xmlns="http://www.w3.org/2000/svg">
<rect width="24" height="24" rx="4" fill="#9FA8BB" fill-opacity="0.15"/>
<path d="M12.6654 8.66667L11.9217 7.17928C11.7076 6.7512 11.6006 6.53715 11.441 6.38077C11.2998 6.24249 11.1296 6.13731 10.9428 6.07287C10.7315 6 10.4922 6 10.0136 6H7.46536C6.71863 6 6.34526 6 6.06004 6.14533C5.80916 6.27315 5.60518 6.47713 5.47736 6.72801C5.33203 7.01323 5.33203 7.3866 5.33203 8.13333V8.66667M10.5654 11.8348C10.6829 11.5009 10.9148 11.2193 11.2199 11.04C11.5251 10.8606 11.8839 10.7951 12.2328 10.8549C12.5816 10.9147 12.8981 11.0961 13.126 11.3669C13.354 11.6377 13.4788 11.9805 13.4782 12.3345C13.4782 13.3337 11.9794 13.8333 11.9794 13.8333M11.9987 15.8333H12.0054M5.33203 8.66667H15.4654C16.5855 8.66667 17.1455 8.66667 17.5734 8.88465C17.9497 9.0764 18.2556 9.38236 18.4474 9.75869C18.6654 10.1865 18.6654 10.7465 18.6654 11.8667V14.8C18.6654 15.9201 18.6654 16.4801 18.4474 16.908C18.2556 17.2843 17.9497 17.5903 17.5734 17.782C17.1455 18 16.5855 18 15.4654 18H8.53203C7.41192 18 6.85187 18 6.42405 17.782C6.04772 17.5903 5.74176 17.2843 5.55002 16.908C5.33203 16.4801 5.33203 15.9201 5.33203 14.8V8.66667Z" stroke="#9FA8BB" stroke-width="1.5" stroke-linecap="round" stroke-linejoin="round"/>
</svg>
