<svg width="24" height="24" viewBox="0 0 24 24" fill="none" xmlns="http://www.w3.org/2000/svg">
<rect width="24" height="24" rx="4" fill="#FC9734" fill-opacity="0.15"/>
<path d="M13.3346 11.333H9.33464M10.668 13.9997H9.33464M14.668 8.66634H9.33464M17.3346 8.53301V15.4663C17.3346 16.5865 17.3346 17.1465 17.1166 17.5743C16.9249 17.9507 16.619 18.2566 16.2426 18.4483C15.8148 18.6663 15.2548 18.6663 14.1346 18.6663H9.86797C8.74786 18.6663 8.18781 18.6663 7.75999 18.4483C7.38366 18.2566 7.0777 17.9507 6.88596 17.5743C6.66797 17.1465 6.66797 16.5865 6.66797 15.4663V8.53301C6.66797 7.4129 6.66797 6.85285 6.88596 6.42503C7.0777 6.0487 7.38366 5.74274 7.75999 5.55099C8.18781 5.33301 8.74786 5.33301 9.86797 5.33301H14.1346C15.2548 5.33301 15.8148 5.33301 16.2426 5.55099C16.619 5.74274 16.9249 6.0487 17.1166 6.42503C17.3346 6.85285 17.3346 7.4129 17.3346 8.53301Z" stroke="#FC9734" stroke-width="1.5" stroke-linecap="round" stroke-linejoin="round"/>
</svg>
